<?xml version="1.0" encoding="UTF-8" standalone="no"?>
<svg
   xmlns:dc="http://purl.org/dc/elements/1.1/"
   xmlns:cc="http://creativecommons.org/ns#"
   xmlns:rdf="http://www.w3.org/1999/02/22-rdf-syntax-ns#"
   xmlns:svg="http://www.w3.org/2000/svg"
   xmlns="http://www.w3.org/2000/svg"
   xmlns:sodipodi="http://sodipodi.sourceforge.net/DTD/sodipodi-0.dtd"
   xmlns:inkscape="http://www.inkscape.org/namespaces/inkscape"
   width="137.74942mm"
   height="137.78862mm"
   viewBox="0 0 137.74942 137.78861"
   version="1.1"
   id="svg8"
   inkscape:version="1.0.1 (0767f8302a, 2020-10-17)"
   sodipodi:docname="logo_inkscape.svg"
   inkscape:export-filename="/home/yannik/Documents/Project18_Covid19/logo.png"
   inkscape:export-xdpi="188.7645"
   inkscape:export-ydpi="188.7645">
  <defs
     id="defs2">
    <inkscape:path-effect
       effect="spiro"
       id="path-effect1001"
       is_visible="true"
       lpeversion="1" />
    <inkscape:path-effect
       effect="spiro"
       id="path-effect992"
       is_visible="true"
       lpeversion="1" />
    <inkscape:path-effect
       effect="spiro"
       id="path-effect983"
       is_visible="true"
       lpeversion="1" />
    <inkscape:path-effect
       effect="spiro"
       id="path-effect974"
       is_visible="true"
       lpeversion="1" />
    <inkscape:path-effect
       effect="spiro"
       id="path-effect965"
       is_visible="true"
       lpeversion="1" />
    <inkscape:path-effect
       effect="spiro"
       id="path-effect956"
       is_visible="true"
       lpeversion="1" />
    <inkscape:path-effect
       effect="spiro"
       id="path-effect947"
       is_visible="true"
       lpeversion="1" />
    <inkscape:path-effect
       effect="spiro"
       id="path-effect938"
       is_visible="true"
       lpeversion="1" />
    <inkscape:path-effect
       effect="spiro"
       id="path-effect919"
       is_visible="true"
       lpeversion="1" />
    <inkscape:path-effect
       effect="spiro"
       id="path-effect915"
       is_visible="true"
       lpeversion="1" />
    <inkscape:path-effect
       effect="spiro"
       id="path-effect911"
       is_visible="true"
       lpeversion="1" />
    <inkscape:path-effect
       effect="spiro"
       id="path-effect907"
       is_visible="true"
       lpeversion="1" />
    <inkscape:path-effect
       effect="spiro"
       id="path-effect903"
       is_visible="true"
       lpeversion="1" />
    <inkscape:path-effect
       effect="spiro"
       id="path-effect899"
       is_visible="true"
       lpeversion="1" />
    <inkscape:path-effect
       effect="spiro"
       id="path-effect895"
       is_visible="true"
       lpeversion="1" />
    <inkscape:path-effect
       effect="spiro"
       id="path-effect891"
       is_visible="true"
       lpeversion="1" />
    <inkscape:path-effect
       effect="spiro"
       id="path-effect887"
       is_visible="true"
       lpeversion="1" />
    <inkscape:path-effect
       effect="spiro"
       id="path-effect883"
       is_visible="true"
       lpeversion="1" />
    <inkscape:path-effect
       effect="spiro"
       id="path-effect877"
       is_visible="true"
       lpeversion="1" />
  </defs>
  <sodipodi:namedview
     id="base"
     pagecolor="#ffffff"
     bordercolor="#666666"
     borderopacity="1.0"
     inkscape:pageopacity="0.0"
     inkscape:pageshadow="2"
     inkscape:zoom="1.4"
     inkscape:cx="272.90509"
     inkscape:cy="283.35165"
     inkscape:document-units="mm"
     inkscape:current-layer="layer1"
     inkscape:document-rotation="0"
     showgrid="false"
     inkscape:window-width="1864"
     inkscape:window-height="1043"
     inkscape:window-x="1976"
     inkscape:window-y="0"
     inkscape:window-maximized="1" />
  <metadata
     id="metadata5">
    <rdf:RDF>
      <cc:Work
         rdf:about="">
        <dc:format>image/svg+xml</dc:format>
        <dc:type
           rdf:resource="http://purl.org/dc/dcmitype/StillImage" />
        <dc:title />
      </cc:Work>
    </rdf:RDF>
  </metadata>
  <g
     inkscape:label="Layer 1"
     inkscape:groupmode="layer"
     id="layer1"
     transform="translate(-11.613208,176.36892)">
    <path
       style="fill:#b0001f;fill-opacity:1;stroke:none;stroke-width:0.171534px;stroke-linecap:butt;stroke-linejoin:miter;stroke-opacity:1"
       d="m 70.948841,-148.34188 c 0.983464,-4.45235 0.955666,-9.12501 -0.0807,-13.56535 -0.213583,-0.9151 -0.473774,-1.83123 -0.94112,-2.64647 -0.554294,-0.96691 -1.374534,-1.74934 -2.05243,-2.634 -0.402896,-0.52578 -0.759115,-1.09492 -0.978847,-1.71981 -0.219733,-0.62489 -0.297532,-1.31053 -0.143588,-1.95479 0.131085,-0.5486 0.426913,-1.0516 0.815443,-1.46049 0.38853,-0.40888 0.867522,-0.72606 1.380443,-0.9607 1.025841,-0.46928 2.167773,-0.60892 3.290704,-0.71662 1.067692,-0.1024 2.157895,-0.17979 3.202205,0.0649 0.522155,0.12235 1.028496,0.32617 1.469852,0.63084 0.441355,0.30466 0.816237,0.7127 1.050392,1.19518 0.300269,0.61871 0.358124,1.33637 0.251963,2.01585 -0.106162,0.67947 -0.368424,1.3258 -0.682742,1.93749 -0.538706,1.04837 -1.235657,2.01577 -1.689979,3.10337 -0.357145,0.85497 -0.557733,1.77248 -0.618777,2.69703 -0.147856,2.23936 0.512355,4.44593 1.201843,6.58162 0.689488,2.13569 1.423549,4.30517 1.429927,6.54939 0.0072,2.53787 -0.963356,5.06625 -2.666904,6.94741 z"
       id="path875"
       inkscape:path-effect="#path-effect877"
       inkscape:original-d="m 70.948841,-148.34188 c -3.068867,0.3929 -0.633328,-7.09244 -0.0807,-13.56535 0.552636,-6.47291 -0.91446,-1.94061 -0.94112,-2.64647 -0.02666,-0.70586 -1.182803,-2.46597 -2.05243,-2.634 -0.86963,-0.16804 -0.629401,-1.76235 -1.122435,-3.6746 -0.493062,-1.91224 3.657918,-2.09173 5.48659,-3.13781 1.828672,-1.04609 3.815157,1.26076 5.722449,1.89091 1.907291,0.63015 -0.724823,1.99293 -0.430779,3.95334 0.294037,1.96042 -0.805123,2.88472 -1.689979,3.10337 -0.884856,0.21864 0.03186,2.07786 -0.618777,2.69703 -0.650638,0.61917 1.222796,6.64876 2.63177,13.13101 1.408973,6.48224 0.401965,6.55452 -2.666904,6.94741 z"
       sodipodi:nodetypes="csssssssssscc" />
    <circle
       style="fill:#b0001f;fill-opacity:1;stroke-width:2.91993"
       id="path879"
       cx="93.159134"
       cy="-95.628693"
       r="45.135006"
       transform="rotate(-7.0216934)" />
    <path
       style="fill:#b0001f;fill-opacity:1;stroke:none;stroke-width:0.171534px;stroke-linecap:butt;stroke-linejoin:miter;stroke-opacity:1"
       d="m 85.952296,-144.74505 c 2.2603,-3.69635 4.027424,-7.69386 5.239876,-11.85342 0.171139,-0.58713 0.33206,-1.18173 0.380698,-1.79136 0.04864,-0.60962 -0.02053,-1.24045 -0.290688,-1.7891 -0.237877,-0.48309 -0.617315,-0.87858 -0.967043,-1.28804 -0.349728,-0.40946 -0.683588,-0.85877 -0.798777,-1.38479 -0.07809,-0.35659 -0.04957,-0.73364 0.06556,-1.08005 0.115128,-0.34642 0.315197,-0.66232 0.5672,-0.92643 0.504005,-0.52821 1.201484,-0.83998 1.915124,-0.99408 1.314339,-0.28381 2.692205,-0.0669 3.97286,0.34292 0.801382,0.25645 1.582825,0.58999 2.285746,1.05247 0.702921,0.46247 1.326764,1.05799 1.763033,1.77747 0.33224,0.54792 0.55456,1.17703 0.54192,1.81768 -0.006,0.32032 -0.0718,0.64061 -0.20346,0.93272 -0.1316,0.29211 -0.3301,0.55543 -0.582586,0.75266 -0.422447,0.33001 -0.965904,0.45838 -1.49572,0.54 -0.529816,0.0816 -1.072682,0.12727 -1.570933,0.32504 -0.577907,0.22939 -1.064798,0.65531 -1.430674,1.15804 -0.365876,0.50272 -0.617077,1.08072 -0.808232,1.67238 -0.647823,2.00512 -0.62329,4.15528 -0.638739,6.26239 -0.01545,2.10711 -0.08911,4.27188 -0.910276,6.21246 -0.899875,2.12658 -2.70259,3.85342 -4.865882,4.66107 z"
       id="path881"
       inkscape:path-effect="#path-effect883"
       inkscape:original-d="m 85.952296,-144.74505 c -2.997026,-0.76821 2.335869,-6.04215 5.239876,-11.85342 2.904014,-5.81125 -0.14589,-2.91464 0.09001,-3.58046 0.235899,-0.66581 -1.01972,-2.19551 -1.76582,-2.67283 -0.7461,-0.4773 2.299865,-1.04141 2.547879,-3.00056 0.247982,-1.95917 1.88714,0.63972 3.97286,0.34292 2.085741,-0.2968 2.509032,1.53997 4.048779,2.82994 1.53976,1.28997 0.2066,1.57263 -0.244126,3.50306 -0.450735,1.93042 -2.16361,0.98864 -3.066653,0.86504 -0.90306,-0.12359 -1.405594,2.49529 -2.238906,2.83042 -0.833312,0.33512 -0.464492,5.93049 -1.549015,12.47485 -1.084517,6.54435 -1.868856,5.42929 -4.865882,4.66107 z"
       sodipodi:nodetypes="csssssssssscc" />
    <path
       style="fill:#b0001f;fill-opacity:1;stroke:none;stroke-width:0.171534px;stroke-linecap:butt;stroke-linejoin:miter;stroke-opacity:1"
       d="m 121.17181,-118.40486 c 4.45236,0.98347 9.12502,0.95567 13.56536,-0.0807 0.9151,-0.21358 1.83123,-0.47377 2.64647,-0.94112 0.96691,-0.55429 1.74935,-1.37453 2.63401,-2.05243 0.52578,-0.4029 1.09492,-0.75911 1.71981,-0.97884 0.62489,-0.21974 1.31053,-0.29753 1.95479,-0.14359 0.5486,0.13109 1.0516,0.42691 1.46048,0.81544 0.40889,0.38853 0.72607,0.86753 0.96071,1.38045 0.46928,1.02584 0.60891,2.16777 0.71661,3.2907 0.1024,1.06769 0.17979,2.15789 -0.0649,3.2022 -0.12234,0.52215 -0.32617,1.02849 -0.63083,1.46985 -0.30466,0.44135 -0.7127,0.81623 -1.19518,1.05039 -0.61871,0.30027 -1.33638,0.35813 -2.01585,0.25197 -0.67948,-0.10616 -1.32581,-0.36843 -1.9375,-0.68275 -1.04836,-0.53871 -2.01576,-1.23567 -3.10336,-1.68999 -0.85497,-0.35714 -1.77248,-0.55772 -2.69703,-0.61876 -2.23936,-0.14784 -4.44592,0.51237 -6.58162,1.20186 -2.13569,0.68948 -4.30517,1.42354 -6.54939,1.42991 -2.53787,0.007 -5.06624,-0.96336 -6.94741,-2.6669 z"
       id="path889"
       inkscape:path-effect="#path-effect891"
       inkscape:original-d="m 121.17181,-118.40486 c -0.3929,-3.06888 7.09246,-0.63333 13.56536,-0.0807 6.47291,0.55263 1.94061,-0.91446 2.64647,-0.94112 0.70586,-0.0267 2.46597,-1.18282 2.63401,-2.05243 0.16803,-0.86963 1.76233,-0.6294 3.6746,-1.12243 1.91223,-0.49306 2.09172,3.65792 3.1378,5.48659 1.04609,1.82866 -1.26077,3.81515 -1.89091,5.72244 -0.63015,1.9073 -1.99293,-0.72482 -3.95335,-0.43078 -1.96041,0.29395 -2.88471,-0.80512 -3.10336,-1.68999 -0.21864,-0.88483 -2.07786,0.0319 -2.69703,-0.61876 -0.61917,-0.65064 -6.64876,1.22279 -13.13101,2.63177 -6.48223,1.40897 -6.55452,0.40196 -6.94741,-2.6669 z"
       sodipodi:nodetypes="csssssssssscc" />
    <path
       style="fill:#b0001f;fill-opacity:1;stroke:none;stroke-width:0.171534px;stroke-linecap:butt;stroke-linejoin:miter;stroke-opacity:1"
       d="m 38.435686,-107.64126 c -4.080632,2.03449 -8.620391,3.14138 -13.179504,3.21344 -0.939578,0.0148 -1.891461,-0.0153 -2.795739,-0.27082 -1.072518,-0.3031 -2.030608,-0.90896 -3.053323,-1.35193 -0.60783,-0.26327 -1.246394,-0.47073 -1.905925,-0.53227 -0.659531,-0.0615 -1.343557,0.0294 -1.931205,0.33505 -0.500393,0.26029 -0.916576,0.66933 -1.218962,1.14547 -0.302386,0.47613 -0.493857,1.01777 -0.597021,1.5723 -0.206327,1.10905 -0.0647,2.25074 0.103312,3.36624 0.159743,1.06063 0.349212,2.137029 0.839991,3.090753 0.24539,0.476862 0.565993,0.918611 0.968646,1.272848 0.402654,0.354237 0.88947,0.618901 1.414347,0.728982 0.673076,0.141163 1.383333,0.02314 2.016741,-0.244722 0.633408,-0.267867 1.19678,-0.679126 1.713915,-1.132481 0.886311,-0.776999 1.655679,-1.687872 2.600527,-2.392526 0.742751,-0.553933 1.584173,-0.971161 2.46628,-1.254724 2.136552,-0.68682 4.437374,-0.58178 6.676545,-0.43114 2.23917,0.15064 4.521928,0.33631 6.700622,-0.20208 2.463765,-0.60884 4.681053,-2.16393 6.092613,-4.27303 z"
       id="path893"
       inkscape:path-effect="#path-effect895"
       inkscape:original-d="m 38.435686,-107.64126 c -0.363533,-3.07249 -7.034159,1.10663 -13.179504,3.21344 -6.145347,2.10681 -2.104501,-0.41623 -2.795739,-0.27082 -0.691238,0.14539 -2.67929,-0.54907 -3.053323,-1.35193 -0.374032,-0.80286 -1.862393,-0.18294 -3.83713,-0.19722 -1.974737,-0.0143 -1.141594,4.05616 -1.712671,6.08401 -0.571085,2.027864 2.148848,3.395211 3.222984,5.092583 1.074138,1.697383 1.757482,-1.186754 3.730656,-1.377203 1.973162,-0.190539 2.603133,-1.481059 2.600527,-2.392526 -0.0026,-0.911458 2.023487,-0.473291 2.46628,-1.254724 0.442781,-0.78145 6.74676,-0.42713 13.377167,-0.63322 6.630386,-0.2061 6.456149,-1.20056 6.092613,-4.27303 z"
       sodipodi:nodetypes="csssssssssscc" />
    <path
       style="fill:#b0001f;fill-opacity:1;stroke:none;stroke-width:0.171534px;stroke-linecap:butt;stroke-linejoin:miter;stroke-opacity:1"
       d="m 81.792489,-65.577167 c 2.034471,4.08064 3.141359,8.620393 3.21344,13.179505 0.01486,0.939577 -0.01526,1.89146 -0.27081,2.795737 -0.3031,1.07252 -0.908965,2.030608 -1.351933,3.053324 -0.263269,0.60783 -0.470734,1.246394 -0.532265,1.905925 -0.06153,0.659531 0.02937,1.343556 0.335047,1.931204 0.260288,0.500393 0.66933,0.916576 1.145466,1.218962 0.476136,0.302386 1.017778,0.493857 1.572305,0.597021 1.109053,0.206328 2.250739,0.0647 3.366241,-0.103311 1.060629,-0.159743 2.137027,-0.349212 3.09075,-0.839992 0.476861,-0.24539 0.918609,-0.565993 1.272846,-0.968646 0.354236,-0.402653 0.618899,-0.88947 0.72898,-1.414346 0.141162,-0.673076 0.02314,-1.383333 -0.244724,-2.016741 -0.267867,-0.633407 -0.679127,-1.196779 -1.132481,-1.713914 -0.776999,-0.886311 -1.687869,-1.65568 -2.392524,-2.600527 -0.553934,-0.742751 -0.971164,-1.584172 -1.254729,-2.466279 -0.686822,-2.136551 -0.58178,-4.437374 -0.431141,-6.676544 0.150639,-2.23917 0.33632,-4.521929 -0.202072,-6.700623 -0.608838,-2.463766 -2.163925,-4.681056 -4.273032,-6.092614 z"
       id="path897"
       inkscape:path-effect="#path-effect899"
       inkscape:original-d="m 81.792489,-65.577167 c -3.072488,0.363533 1.106633,7.03416 3.21344,13.179505 2.106809,6.145346 -0.416231,2.104502 -0.27081,2.795737 0.14544,0.691234 -0.549072,2.679291 -1.351933,3.053324 -0.802862,0.374031 -0.182941,1.862394 -0.197218,3.837129 -0.01431,1.974739 4.056162,1.141597 6.084012,1.712672 2.027862,0.571085 3.395204,-2.148848 5.092576,-3.222984 1.697382,-1.074137 -1.186754,-1.757482 -1.377205,-3.730655 -0.19047,-1.973171 -1.481054,-2.603135 -2.392524,-2.600527 -0.911461,0.0026 -0.473292,-2.023486 -1.254729,-2.466279 -0.781443,-0.442782 -0.427125,-6.74676 -0.633213,-13.377167 -0.206097,-6.630387 -1.200554,-6.456152 -4.273032,-6.092614 z"
       sodipodi:nodetypes="csssssssssscc" />
    <path
       style="fill:#b0001f;fill-opacity:1;stroke:none;stroke-width:0.171534px;stroke-linecap:butt;stroke-linejoin:miter;stroke-opacity:1"
       d="m 50.342475,-76.286729 c -1.446851,4.32404 -3.874255,8.316821 -7.047071,11.591564 -0.653878,0.674884 -1.348254,1.326674 -2.168379,1.78539 -0.97271,0.54406 -2.078591,0.793121 -3.114985,1.203065 -0.61596,0.243642 -1.214194,0.548475 -1.724062,0.971326 -0.509867,0.42285 -0.929269,0.970807 -1.128654,1.602482 -0.16978,0.537883 -0.174829,1.121405 -0.05197,1.671903 0.122859,0.550499 0.370468,1.068888 0.68963,1.533946 0.638323,0.930115 1.545766,1.63726 2.453345,2.30724 0.862934,0.637022 1.758036,1.264175 2.779454,1.591525 0.510709,0.163675 1.049772,0.249337 1.584974,0.215102 0.535201,-0.03424 1.066577,-0.191322 1.51556,-0.484627 0.575754,-0.37612 0.994529,-0.961799 1.253006,-1.599097 0.258476,-0.637298 0.366035,-1.326466 0.411135,-2.012706 0.0773,-1.176138 -0.02276,-2.364247 0.14708,-3.530621 0.133514,-0.916894 0.433464,-1.806895 0.856697,-2.631149 1.025114,-1.996426 2.726318,-3.549077 4.416168,-5.025891 1.68985,-1.476815 3.435299,-2.959674 4.595168,-4.880944 1.311632,-2.172659 1.779879,-4.840132 1.286639,-7.329618 z"
       id="path901"
       inkscape:path-effect="#path-effect903"
       inkscape:original-d="m 50.342475,-76.286729 c -2.42963,-1.915523 -4.191395,5.75641 -7.047071,11.591564 -2.855678,5.835154 -1.782429,1.193785 -2.168379,1.78539 -0.385926,0.591624 -2.282796,1.506293 -3.114985,1.203065 -0.83219,-0.303228 -1.446271,1.187554 -2.852716,2.573808 -1.406466,1.386235 2.06091,3.675369 3.091006,5.513089 1.030096,1.837733 3.920235,0.881306 5.879988,1.322 1.95976,0.440701 0.403565,-2.08189 1.664141,-3.611803 1.260559,-1.529925 0.793431,-2.887958 0.14708,-3.530621 -0.646342,-0.642657 1.096152,-1.765488 0.856697,-2.631149 -0.239471,-0.865657 4.468657,-5.072703 9.011336,-9.906835 4.542658,-4.834123 3.716267,-5.414108 1.286639,-7.329618 z"
       sodipodi:nodetypes="csssssssssscc" />
    <path
       style="fill:#b0001f;fill-opacity:1;stroke:none;stroke-width:0.171534px;stroke-linecap:butt;stroke-linejoin:miter;stroke-opacity:1"
       d="m 47.516302,-130.99082 c -2.452873,-3.84371 -5.7766,-7.12812 -9.649218,-9.53509 -0.7981,-0.49605 -1.629883,-0.95986 -2.536808,-1.20586 -1.075658,-0.29176 -2.208923,-0.26503 -3.313817,-0.41123 -0.656673,-0.0869 -1.310998,-0.23745 -1.908235,-0.52395 -0.597236,-0.28649 -1.137067,-0.7163 -1.483771,-1.28072 -0.295224,-0.48061 -0.441716,-1.04547 -0.45611,-1.60932 -0.01439,-0.56386 0.100024,-1.12684 0.296798,-1.65545 0.393546,-1.05721 1.102272,-1.96341 1.820148,-2.8336 0.682563,-0.82738 1.39873,-1.65299 2.310186,-2.21841 0.455728,-0.28271 0.957894,-0.49662 1.485407,-0.59328 0.527514,-0.0967 1.081126,-0.0732 1.587862,0.10238 0.649815,0.22517 1.198194,0.69173 1.60359,1.24726 0.405395,0.55553 0.676971,1.198 0.887242,1.85279 0.360382,1.12223 0.551616,2.29912 0.999413,3.38942 0.352014,0.85709 0.858963,1.6477 1.469556,2.34462 1.478923,1.68801 3.506043,2.78145 5.503747,3.80407 1.997703,1.02262 4.05081,2.03762 5.642222,3.62002 1.799636,1.78945 2.901168,4.26357 3.026762,6.79833 z"
       id="path905"
       inkscape:path-effect="#path-effect907"
       inkscape:original-d="m 47.516302,-130.99082 c -1.8922,2.44784 -5.462954,-4.56729 -9.649218,-9.53509 -4.186267,-4.96782 -2.018837,-0.7256 -2.536808,-1.20586 -0.517954,-0.4803 -2.58008,-0.90734 -3.313817,-0.41123 -0.733738,0.49609 -1.691214,-0.80113 -3.392006,-1.80467 -1.700808,-1.00351 1.107463,-4.0656 1.660836,-6.09837 0.553372,-2.03275 3.589214,-1.80622 5.383455,-2.70931 1.794249,-0.90307 0.896689,1.92176 2.490832,3.10005 1.594129,1.17831 1.470498,2.60911 0.999413,3.38942 -0.47108,0.78028 1.491797,1.44671 1.469556,2.34462 -0.02226,0.89788 5.566025,3.83674 11.145969,7.42409 5.579918,3.58733 4.918964,4.35051 3.026762,6.79833 z"
       sodipodi:nodetypes="csssssssssscc" />
    <path
       style="fill:#b0001f;fill-opacity:1;stroke:none;stroke-width:0.171534px;stroke-linecap:butt;stroke-linejoin:miter;stroke-opacity:1"
       d="m 102.13114,-144.58236 c 3.84371,-2.45287 7.12812,-5.7766 9.53509,-9.64922 0.49605,-0.7981 0.95986,-1.62988 1.20586,-2.53681 0.29176,-1.07566 0.26503,-2.20892 0.41123,-3.31381 0.0869,-0.65667 0.23745,-1.311 0.52394,-1.90824 0.28649,-0.59723 0.7163,-1.13706 1.28072,-1.48377 0.48061,-0.29523 1.04547,-0.44172 1.60932,-0.45611 0.56386,-0.0144 1.12684,0.10002 1.65545,0.29679 1.05721,0.39355 1.96341,1.10228 2.8336,1.82016 0.82738,0.68256 1.65299,1.39873 2.2184,2.31019 0.28271,0.45572 0.49662,0.95789 0.59328,1.4854 0.0967,0.52751 0.0732,1.08112 -0.10238,1.58786 -0.22517,0.64981 -0.69172,1.19819 -1.24725,1.60359 -0.55552,0.4054 -1.19799,0.67698 -1.85278,0.88725 -1.12223,0.36038 -2.29912,0.55162 -3.38942,0.99941 -0.85709,0.35201 -1.6477,0.85896 -2.34462,1.46955 -1.68801,1.47892 -2.78145,3.50604 -3.80407,5.50374 -1.02263,1.99771 -2.03762,4.05082 -3.62002,5.64223 -1.78944,1.79964 -4.26356,2.90117 -6.79833,3.02677 z"
       id="path909"
       inkscape:path-effect="#path-effect911"
       inkscape:original-d="m 102.13114,-144.58236 c -2.447844,-1.89219 4.56728,-5.46295 9.53509,-9.64922 4.96782,-4.18626 0.7256,-2.01884 1.20586,-2.53681 0.4803,-0.51795 0.90733,-2.58008 0.41123,-3.31381 -0.49609,-0.73374 0.80112,-1.69121 1.80466,-3.39201 1.00352,-1.7008 4.06561,1.10746 6.09837,1.66084 2.03276,0.55337 1.80622,3.58921 2.7093,5.38345 0.90309,1.79426 -1.92174,0.8967 -3.10003,2.49084 -1.17832,1.59413 -2.60911,1.4705 -3.38942,0.99941 -0.78028,-0.47108 -1.44672,1.4918 -2.34462,1.46955 -0.89789,-0.0222 -3.83675,5.56602 -7.42409,11.14597 -3.58733,5.57992 -4.35051,4.91897 -6.79833,3.02677 z"
       sodipodi:nodetypes="csssssssssscc" />
    <path
       style="fill:#b0001f;fill-opacity:1;stroke:none;stroke-width:0.171534px;stroke-linecap:butt;stroke-linejoin:miter;stroke-opacity:1"
       d="m 118.63256,-84.680147 c 2.45287,3.843716 5.77659,7.128135 9.64922,9.535097 0.7981,0.496046 1.62989,0.95986 2.53681,1.205857 1.07566,0.291764 2.20892,0.265032 3.31381,0.411235 0.65667,0.08689 1.311,0.23745 1.90823,0.52394 0.59724,0.286491 1.13707,0.716301 1.48378,1.280716 0.29523,0.48061 0.44172,1.045467 0.45611,1.609326 0.0144,0.563858 -0.10002,1.126838 -0.2968,1.655443 -0.39355,1.05721 -1.10228,1.963416 -1.82016,2.833602 -0.68256,0.827376 -1.39873,1.652984 -2.31018,2.218403 -0.45572,0.28271 -0.95788,0.496619 -1.4854,0.593278 -0.52751,0.09666 -1.08112,0.07321 -1.58785,-0.102377 -0.64982,-0.225167 -1.19819,-0.691723 -1.60359,-1.247253 -0.4054,-0.55553 -0.67697,-1.198001 -0.88725,-1.852787 -0.36039,-1.122231 -0.55163,-2.299109 -0.99943,-3.389412 -0.35201,-0.857089 -0.85895,-1.647708 -1.46954,-2.344628 -1.47891,-1.688018 -3.50603,-2.78146 -5.50374,-3.80408 -1.9977,-1.02262 -4.05081,-2.037609 -5.64223,-3.620005 -1.79964,-1.789443 -2.90117,-4.263568 -3.02676,-6.798335 z"
       id="path913"
       inkscape:path-effect="#path-effect915"
       inkscape:original-d="m 118.63256,-84.680147 c 1.8922,-2.447839 5.46295,4.567288 9.64922,9.535097 4.18626,4.967812 2.01884,0.725592 2.53681,1.205857 0.51795,0.480296 2.58009,0.907336 3.31381,0.411235 0.73374,-0.496095 1.69122,0.801119 3.39201,1.804656 1.70079,1.003518 -1.10746,4.065609 -1.66085,6.098371 -0.55336,2.032759 -3.5892,1.80623 -5.38343,2.709304 -1.79426,0.903077 -0.89671,-1.921742 -2.49084,-3.10004 -1.59413,-1.178317 -1.4705,-2.609112 -0.99943,-3.389412 0.47109,-0.780282 -1.49179,-1.446728 -1.46954,-2.344628 0.0222,-0.897889 -5.56602,-3.836737 -11.14597,-7.424085 -5.57992,-3.587329 -4.91897,-4.350515 -3.02676,-6.798335 z"
       sodipodi:nodetypes="csssssssssscc" />
    <path
       style="fill:#b0001f;fill-opacity:1;stroke:none;stroke-width:0.171534px;stroke-linecap:butt;stroke-linejoin:miter;stroke-opacity:1"
       d="m 119.45854,-102.53971 c 3.69635,2.2603 7.69385,4.027424 11.85341,5.239876 0.58713,0.171139 1.18173,0.33206 1.79136,0.380698 0.60962,0.04864 1.24045,-0.02053 1.7891,-0.290688 0.48309,-0.237877 0.87858,-0.617315 1.28804,-0.967044 0.40946,-0.349729 0.85877,-0.683589 1.38479,-0.798779 0.35659,-0.07809 0.73364,-0.04957 1.08006,0.06555 0.34641,0.115127 0.66232,0.315196 0.92642,0.567199 0.52822,0.504006 0.83999,1.201488 0.99409,1.915129 0.28381,1.31434 0.0669,2.692206 -0.34292,3.972862 -0.25645,0.801384 -0.58999,1.582828 -1.05247,2.28575 -0.46248,0.702921 -1.058,1.326764 -1.77748,1.763031 -0.54791,0.332234 -1.17702,0.55455 -1.81767,0.541905 -0.32032,-0.0063 -0.6406,-0.07185 -0.93271,-0.203453 -0.29211,-0.131605 -0.55543,-0.330104 -0.75266,-0.582583 -0.33001,-0.422444 -0.45838,-0.9659 -0.54001,-1.495715 -0.0816,-0.529814 -0.12727,-1.072679 -0.32504,-1.570929 -0.22939,-0.577909 -0.65531,-1.064802 -1.15804,-1.43068 -0.50272,-0.365879 -1.08072,-0.617083 -1.67238,-0.80824 -2.00511,-0.64783 -4.15528,-0.623298 -6.26239,-0.638746 -2.10711,-0.01545 -4.27188,-0.0891 -6.21246,-0.910266 -2.12659,-0.899872 -3.85343,-2.702587 -4.66108,-4.865881 z"
       id="path881-6"
       inkscape:path-effect="#path-effect947"
       inkscape:original-d="m 119.45854,-102.53971 c 0.76821,-2.99702 6.04216,2.33587 11.85341,5.239876 5.81126,2.904015 2.91465,-0.145895 3.58046,0.09001 0.66581,0.235903 2.19551,-1.019715 2.67283,-1.765823 0.47731,-0.746096 1.04142,2.299867 3.00057,2.547882 1.95916,0.247985 -0.63972,1.887137 -0.34292,3.972862 0.2968,2.085736 -1.53998,2.509036 -2.82995,4.048781 -1.28997,1.539758 -1.57261,0.206644 -3.50304,-0.244131 -1.93043,-0.450736 -0.98865,-2.163607 -0.86505,-3.066644 0.12359,-0.903066 -2.49529,-1.405603 -2.83042,-2.23892 -0.33513,-0.833307 -5.93049,-0.464486 -12.47485,-1.549012 -6.54435,-1.084511 -5.42929,-1.868853 -4.66108,-4.86588 z"
       sodipodi:nodetypes="csssssssssscc" />
    <path
       style="fill:#b0001f;fill-opacity:1;stroke:none;stroke-width:0.171534px;stroke-linecap:butt;stroke-linejoin:miter;stroke-opacity:1"
       d="m 72.695718,-69.880476 c -2.260301,3.69635 -4.027423,7.69386 -5.239871,11.853419 -0.171138,0.587126 -0.332058,1.181731 -0.380697,1.791354 -0.04864,0.609623 0.02053,1.240448 0.290687,1.789102 0.237875,0.483095 0.617312,0.878585 0.967039,1.288044 0.349727,0.409459 0.683585,0.858769 0.798773,1.384789 0.07809,0.356594 0.04957,0.733639 -0.06556,1.080053 -0.115127,0.346414 -0.315197,0.662319 -0.567199,0.926425 -0.504004,0.528211 -1.201483,0.839985 -1.915122,0.994084 -1.31434,0.283811 -2.692206,0.06691 -3.972862,-0.342917 -0.801383,-0.256452 -1.582826,-0.589993 -2.285747,-1.052468 -0.702922,-0.462475 -1.326765,-1.057992 -1.763033,-1.777473 -0.332237,-0.547916 -0.554556,-1.177027 -0.541912,-1.817679 0.0063,-0.320325 0.07185,-0.640608 0.203455,-0.932718 0.131606,-0.29211 0.330107,-0.555427 0.582588,-0.752662 0.422445,-0.330009 0.965901,-0.458376 1.495715,-0.540003 0.529814,-0.08163 1.072679,-0.127272 1.570929,-0.325042 0.577909,-0.229389 1.064802,-0.655315 1.43068,-1.158038 0.365879,-0.502724 0.617082,-1.080728 0.808239,-1.672384 0.647828,-2.005113 0.623294,-4.155275 0.638741,-6.262386 0.01545,-2.107112 0.0891,-4.271877 0.910265,-6.212456 0.899873,-2.126587 2.702591,-3.853427 4.865886,-4.661077 z"
       id="path881-0"
       inkscape:path-effect="#path-effect956"
       inkscape:original-d="m 72.695718,-69.880476 c 2.997027,0.768213 -2.335866,6.042159 -5.239871,11.853419 -2.904021,5.81125 0.145885,2.914646 -0.09001,3.580456 -0.235905,0.665809 1.019714,2.195513 1.765812,2.672833 0.746097,0.4773 -2.299861,1.041412 -2.547877,3.000562 -0.247984,1.959166 -1.887138,-0.639727 -3.972862,-0.342917 -2.085735,0.296807 -2.509034,-1.539976 -4.04878,-2.829941 -1.539756,-1.289974 -0.206646,-1.572626 0.244131,-3.503059 0.450735,-1.930426 2.163607,-0.988639 3.066644,-0.865045 0.903066,0.12359 1.405603,-2.495288 2.238919,-2.830422 0.833308,-0.335125 0.464487,-5.930482 1.549006,-12.474842 1.084521,-6.544351 1.868864,-5.429291 4.865886,-4.661077 z"
       sodipodi:nodetypes="csssssssssscc" />
    <path
       style="fill:#b0001f;fill-opacity:1;stroke:none;stroke-width:0.171534px;stroke-linecap:butt;stroke-linejoin:miter;stroke-opacity:1"
       d="m 44.813388,-115.4838 c -3.696345,-2.26031 -7.693857,-4.02744 -11.85342,-5.23988 -0.587127,-0.17114 -1.181731,-0.33206 -1.791354,-0.38069 -0.609623,-0.0486 -1.240448,0.0205 -1.789101,0.29069 -0.483096,0.23788 -0.878585,0.61732 -1.288044,0.96705 -0.409458,0.34973 -0.858768,0.68359 -1.38479,0.79878 -0.356595,0.0781 -0.733641,0.0496 -1.080056,-0.0656 -0.346415,-0.11512 -0.66232,-0.31519 -0.926426,-0.5672 -0.528211,-0.50401 -0.839983,-1.20149 -0.99408,-1.91513 -0.283806,-1.31434 -0.0669,-2.6922 0.342917,-3.97285 0.256451,-0.80138 0.589991,-1.58283 1.052466,-2.28575 0.462475,-0.70293 1.057993,-1.32677 1.777475,-1.76304 0.547916,-0.33224 1.177027,-0.55456 1.817678,-0.54191 0.320326,0.006 0.640609,0.0719 0.932719,0.20345 0.29211,0.13161 0.555427,0.33011 0.752662,0.58259 0.33001,0.42245 0.458377,0.9659 0.540003,1.49572 0.08163,0.52981 0.127272,1.07268 0.325042,1.57093 0.229389,0.57791 0.655315,1.0648 1.158039,1.43068 0.502724,0.36588 1.080729,0.61708 1.672385,0.80824 2.005113,0.64783 4.155275,0.62329 6.262386,0.63874 2.107112,0.0155 4.271877,0.0891 6.212456,0.91027 2.126585,0.89987 3.853424,2.70259 4.661075,4.86588 z"
       id="path881-9"
       inkscape:path-effect="#path-effect965"
       inkscape:original-d="m 44.813388,-115.4838 c -0.768214,2.99703 -6.042161,-2.33587 -11.85342,-5.23988 -5.81125,-2.90401 -2.914645,0.1459 -3.580455,-0.09 -0.665809,-0.23588 -2.195514,1.01973 -2.672834,1.76583 -0.4773,0.74609 -1.041412,-2.29986 -3.000562,-2.54789 -1.959165,-0.24798 0.639727,-1.88712 0.342917,-3.97285 -0.296808,-2.08574 1.539975,-2.50904 2.829941,-4.04879 1.289975,-1.53975 1.572634,-0.20659 3.503059,0.24413 1.930429,0.45075 0.98864,2.16361 0.865045,3.06665 -0.123589,0.90307 2.495289,1.4056 2.830424,2.23892 0.335124,0.83332 5.930481,0.46449 12.474842,1.54901 6.544351,1.08452 5.429287,1.86884 4.661075,4.86588 z"
       sodipodi:nodetypes="csssssssssscc" />
    <path
       style="fill:#b0001f;fill-opacity:1;stroke:none;stroke-width:0.171534px;stroke-linecap:butt;stroke-linejoin:miter;stroke-opacity:1"
       d="m 66.898084,-142.31215 c -3.089692,-3.0374 -5.774022,-6.48663 -7.95958,-10.22766 -0.308494,-0.52805 -0.608888,-1.06583 -0.804002,-1.64543 -0.195114,-0.5796 -0.281086,-1.20836 -0.152138,-1.80617 0.113541,-0.52638 0.38567,-1.00212 0.625588,-1.48421 0.239918,-0.48208 0.454772,-0.99898 0.438875,-1.53723 -0.01078,-0.36488 -0.129933,-0.72374 -0.325679,-1.03186 -0.195746,-0.30813 -0.466493,-0.56604 -0.77505,-0.76111 -0.617116,-0.39012 -1.369403,-0.52333 -2.099106,-0.49965 -1.343926,0.0436 -2.627979,0.58837 -3.770912,1.29671 -0.715201,0.44325 -1.392351,0.95644 -1.962041,1.57566 -0.569689,0.61922 -1.030381,1.34832 -1.279027,2.15216 -0.189356,0.61216 -0.252377,1.27642 -0.08465,1.89486 0.08386,0.30922 0.22515,0.60403 0.423707,0.85548 0.198557,0.25144 0.455023,0.45872 0.747822,0.58879 0.4899,0.21763 1.048262,0.21028 1.582048,0.16089 0.533785,-0.0494 1.071499,-0.13684 1.602848,-0.0659 0.616301,0.0823 1.191998,0.37734 1.668931,0.77626 0.476932,0.39891 0.860882,0.89869 1.189893,1.42628 1.115012,1.78799 1.612961,3.87984 2.139253,5.92023 0.526292,2.04039 1.123045,4.12258 2.390564,5.8059 1.38901,1.84466 3.556875,3.08245 5.851493,3.34102 z"
       id="path881-93"
       inkscape:path-effect="#path-effect974"
       inkscape:original-d="m 66.898084,-142.31215 c 2.721039,-1.4725 -3.732225,-5.29475 -7.95958,-10.22766 -4.227358,-4.93288 -0.565727,-2.86293 -0.95614,-3.4516 -0.390413,-0.58867 0.456487,-2.37733 1.064463,-3.02144 0.607979,-0.64408 -2.483832,-0.4522 -3.199835,-2.29262 -0.715977,-1.84044 -1.675502,1.07853 -3.770912,1.29671 -2.095418,0.2182 -2.060359,2.10278 -3.241068,3.72782 -1.180716,1.62505 0.181139,1.57577 1.086876,3.33913 0.905694,1.76335 2.338841,0.43407 3.184896,0.095 0.846087,-0.33902 1.969091,2.07964 2.858824,2.20254 0.889721,0.1229 1.889676,5.64053 4.529817,11.72613 2.640135,6.08559 3.130455,4.81353 5.851493,3.34102 z"
       sodipodi:nodetypes="csssssssssscc" />
    <path
       style="fill:#b0001f;fill-opacity:1;stroke:none;stroke-width:0.171534px;stroke-linecap:butt;stroke-linejoin:miter;stroke-opacity:1"
       d="m 97.096643,-73.01944 c 3.089707,3.037386 5.774037,6.486617 7.959587,10.227657 0.30849,0.528051 0.60888,1.065836 0.804,1.645436 0.19511,0.579601 0.28108,1.208356 0.15213,1.806166 -0.11354,0.526379 -0.38567,1.002122 -0.62559,1.484207 -0.23991,0.482085 -0.45477,0.99898 -0.43887,1.53723 0.0108,0.364885 0.12993,0.723742 0.32568,1.031866 0.19575,0.308124 0.46649,0.56604 0.77505,0.761101 0.61712,0.390124 1.36941,0.523331 2.09911,0.499654 1.34392,-0.04361 2.62798,-0.588374 3.77091,-1.296708 0.7152,-0.443247 1.39236,-0.956441 1.96205,-1.575662 0.56969,-0.619221 1.03038,-1.348321 1.27902,-2.152162 0.18935,-0.612161 0.25236,-1.276418 0.0846,-1.894853 -0.0839,-0.309218 -0.22516,-0.604027 -0.42371,-0.855471 -0.19856,-0.251445 -0.45502,-0.458723 -0.74782,-0.588796 -0.4899,-0.217634 -1.04826,-0.210292 -1.58204,-0.160916 -0.53379,0.04938 -1.0715,0.136822 -1.60285,0.06587 -0.6163,-0.0823 -1.19199,-0.377349 -1.66892,-0.776265 -0.47694,-0.398915 -0.86089,-0.898688 -1.1899,-1.426275 -1.11502,-1.787985 -1.61297,-3.879837 -2.13926,-5.920223 -0.52629,-2.040386 -1.12304,-4.122578 -2.39056,-5.805897 -1.38901,-1.844666 -3.556873,-3.082453 -5.851492,-3.341028 z"
       id="path881-63"
       inkscape:path-effect="#path-effect983"
       inkscape:original-d="m 97.096643,-73.01944 c -2.72104,1.472501 3.732227,5.294759 7.959587,10.227657 4.22735,4.932886 0.56572,2.862934 0.95613,3.451602 0.39042,0.588667 -0.45648,2.377337 -1.06446,3.021437 -0.60798,0.64408 2.48383,0.452211 3.19984,2.292621 0.71596,1.840437 1.6755,-1.078532 3.77091,-1.296708 2.09541,-0.218181 2.06035,-2.102783 3.24107,-3.727824 1.18071,-1.625052 -0.18119,-1.575762 -1.08689,-3.33912 -0.90569,-1.763356 -2.33883,-0.434079 -3.18489,-0.09505 -0.84608,0.339031 -1.9691,-2.079631 -2.85882,-2.20254 -0.88972,-0.1229 -1.88968,-5.640521 -4.52982,-11.72612 -2.64013,-6.085588 -3.13045,-4.81353 -5.851492,-3.341028 z"
       sodipodi:nodetypes="csssssssssscc" />
    <path
       style="fill:#b0001f;fill-opacity:1;stroke:none;stroke-width:0.171534px;stroke-linecap:butt;stroke-linejoin:miter;stroke-opacity:1"
       d="m 44.906974,-91.794958 c -3.037399,3.089691 -6.486629,5.774022 -10.227661,7.959579 -0.528051,0.308494 -1.065835,0.608888 -1.645435,0.804002 -0.5796,0.195114 -1.208356,0.281086 -1.806167,0.152138 -0.526379,-0.11354 -1.002122,-0.38567 -1.484207,-0.625587 -0.482084,-0.239918 -0.998979,-0.454772 -1.537229,-0.438875 -0.364885,0.01078 -0.723741,0.129933 -1.031866,0.325678 -0.308124,0.195746 -0.566039,0.466493 -0.761102,0.77505 -0.390124,0.617116 -0.523331,1.369403 -0.499655,2.099107 0.0436,1.343926 0.588374,2.627978 1.29671,3.770912 0.443248,0.715201 0.956442,1.392353 1.575664,1.962043 0.619221,0.56969 1.34832,1.030382 2.15216,1.279024 0.612159,0.189352 1.276415,0.252368 1.89485,0.08464 0.309217,-0.08386 0.604027,-0.22515 0.855471,-0.423704 0.251445,-0.198555 0.458724,-0.455019 0.588798,-0.747814 0.217637,-0.489898 0.210295,-1.04826 0.160918,-1.582047 -0.04938,-0.533786 -0.136824,-1.071502 -0.06587,-1.602851 0.0823,-0.616299 0.377348,-1.191994 0.776264,-1.668926 0.398915,-0.476932 0.898688,-0.860884 1.426275,-1.189897 1.787986,-1.11502 3.879839,-1.612971 5.920227,-2.139262 2.040387,-0.52629 4.122581,-1.123039 5.805901,-2.390555 1.844667,-1.389008 3.082453,-3.556875 3.341027,-5.851494 z"
       id="path881-633"
       inkscape:path-effect="#path-effect992"
       inkscape:original-d="m 44.906974,-91.794958 c -1.4725,-2.721045 -5.294758,3.732224 -10.227661,7.959579 -4.932885,4.227359 -2.862934,0.565728 -3.451602,0.95614 -0.588667,0.390412 -2.377336,-0.456486 -3.021436,-1.064462 -0.64408,-0.60798 -0.45221,2.483832 -2.292623,3.199835 -1.840434,0.715977 1.078533,1.675502 1.29671,3.770912 0.218181,2.095419 2.102782,2.06036 3.727824,3.241067 1.625052,1.180717 1.575767,-0.181139 3.339119,-1.086874 1.763357,-0.905695 0.434079,-2.338841 0.09505,-3.184898 -0.339032,-0.846085 2.079631,-1.96909 2.202539,-2.858823 0.122899,-0.889723 5.640525,-1.889677 11.726128,-4.529817 6.085588,-2.640135 4.813528,-3.130455 3.341027,-5.851494 z"
       sodipodi:nodetypes="csssssssssscc" />
    <path
       style="fill:#b0001f;fill-opacity:1;stroke:none;stroke-width:0.171534px;stroke-linecap:butt;stroke-linejoin:miter;stroke-opacity:1"
       d="m 115.35498,-125.43413 c 3.0374,-3.0897 6.48663,-5.77403 10.22766,-7.95959 0.52805,-0.30849 1.06583,-0.60889 1.64543,-0.804 0.5796,-0.19512 1.20836,-0.28109 1.80617,-0.15214 0.52638,0.11354 1.00212,0.38567 1.48421,0.62559 0.48208,0.23991 0.99898,0.45477 1.53723,0.43887 0.36488,-0.0108 0.72374,-0.12993 1.03187,-0.32568 0.30812,-0.19575 0.56603,-0.46649 0.7611,-0.77505 0.39012,-0.61712 0.52333,-1.36941 0.49965,-2.09911 -0.0436,-1.34392 -0.58837,-2.62798 -1.2967,-3.77091 -0.44325,-0.7152 -0.95644,-1.39235 -1.57566,-1.96204 -0.61922,-0.56969 -1.34832,-1.03038 -2.15216,-1.27902 -0.61216,-0.18935 -1.27641,-0.25237 -1.89485,-0.0847 -0.30922,0.0839 -0.60403,0.22515 -0.85547,0.4237 -0.25145,0.19856 -0.45873,0.45502 -0.58881,0.74781 -0.21764,0.4899 -0.21031,1.04826 -0.16094,1.58205 0.0494,0.53379 0.1368,1.07151 0.0658,1.60286 -0.0823,0.6163 -0.37736,1.19199 -0.77627,1.66892 -0.39891,0.47693 -0.89868,0.86089 -1.42627,1.1899 -1.78798,1.11503 -3.87983,1.61298 -5.92022,2.13927 -2.04039,0.52629 -4.12258,1.12303 -5.8059,2.39055 -1.84466,1.389 -3.08245,3.55687 -3.34102,5.85148 z"
       id="path881-2"
       inkscape:path-effect="#path-effect1001"
       inkscape:original-d="m 115.35498,-125.43413 c 1.4725,2.72103 5.29476,-3.73223 10.22766,-7.95959 4.93289,-4.22736 2.86294,-0.56572 3.4516,-0.95614 0.58867,-0.39042 2.37735,0.45647 3.02144,1.06446 0.64408,0.60799 0.45222,-2.48383 2.29262,-3.19984 1.84044,-0.71598 -1.07853,-1.6755 -1.2967,-3.77091 -0.21819,-2.09542 -2.10279,-2.06036 -3.72782,-3.24106 -1.62506,-1.18072 -1.57577,0.18119 -3.33913,1.08686 -1.76336,0.9057 -0.43408,2.33886 -0.0951,3.18491 0.33902,0.84608 -2.07963,1.96908 -2.20254,2.85882 -0.1229,0.88972 -5.64052,1.88967 -11.72612,4.52982 -6.08559,2.64013 -4.81353,3.13045 -3.34102,5.85148 z"
       sodipodi:nodetypes="csssssssssscc" />
    <g
       id="g905"
       transform="translate(-0.30065729)">
      <text
         xml:space="preserve"
         style="font-style:normal;font-weight:normal;font-size:25.1337px;line-height:1.25;font-family:sans-serif;fill:#000000;fill-opacity:1;stroke:none;stroke-width:0.628345"
         x="60.158928"
         y="-120.18022"
         id="text845"><tspan
           sodipodi:role="line"
           id="tspan843"
           x="60.158928"
           y="-120.18022"
           style="font-style:normal;font-variant:normal;font-weight:bold;font-stretch:normal;font-family:Verdana;-inkscape-font-specification:'Verdana Bold';fill:#ffffff;fill-opacity:1;stroke-width:0.628345">KO</tspan></text>
      <text
         xml:space="preserve"
         style="font-style:normal;font-weight:normal;font-size:25.1337px;line-height:1.25;font-family:sans-serif;fill:#000000;fill-opacity:1;stroke:none;stroke-width:0.628345"
         x="61.165257"
         y="-97.132301"
         id="text845-1"><tspan
           sodipodi:role="line"
           id="tspan843-1"
           x="61.165257"
           y="-97.132301"
           style="font-weight:bold;fill:#ffffff;fill-opacity:1;stroke-width:0.628345">CO</tspan></text>
      <text
         xml:space="preserve"
         style="font-style:normal;font-weight:normal;font-size:25.1337px;line-height:1.25;font-family:sans-serif;fill:#000000;fill-opacity:1;stroke:none;stroke-width:0.628345"
         x="62.39249"
         y="-74.121193"
         id="text845-7"><tspan
           sodipodi:role="line"
           id="tspan843-0"
           x="62.39249"
           y="-74.121193"
           style="font-style:normal;font-variant:normal;font-weight:bold;font-stretch:normal;font-family:Verdana;-inkscape-font-specification:'Verdana Bold';fill:#ffffff;fill-opacity:1;stroke-width:0.628345">19</tspan></text>
    </g>
  </g>
</svg>
